<svg width="122" height="42" viewBox="0 0 122 42" fill="none" xmlns="http://www.w3.org/2000/svg">
<g filter="url(#filter0_d_203_116)">
<path d="M16.0959 28.613H23.6551L22.8789 33H9.54919L13.7337 9.31023H19.5043L16.0959 28.613ZM36.9025 33.2362C34.9002 33.2362 33.1342 32.82 31.6044 31.9876C30.097 31.1552 28.9272 29.9853 28.0948 28.478C27.2624 26.9707 26.8462 25.2384 26.8462 23.2811C26.8462 20.5139 27.4424 18.0505 28.6347 15.8907C29.8271 13.7085 31.4806 12.0099 33.5954 10.7951C35.7326 9.5802 38.1511 8.97277 40.8508 8.97277C42.8756 8.97277 44.6529 9.38897 46.1827 10.2214C47.7125 11.0313 48.8936 12.1899 49.726 13.6972C50.5584 15.1821 50.9746 16.8919 50.9746 18.8266C50.9746 21.5938 50.3785 24.0798 49.1861 26.2845C47.9937 28.4668 46.3289 30.1766 44.1917 31.4139C42.0544 32.6288 39.6247 33.2362 36.9025 33.2362ZM37.7799 27.9043C39.2647 27.9043 40.5696 27.5219 41.6945 26.757C42.8193 25.9921 43.6855 24.9684 44.2929 23.6861C44.9228 22.3812 45.2378 20.9751 45.2378 19.4678C45.2378 17.848 44.7879 16.5769 43.888 15.6545C42.9881 14.7321 41.7282 14.2709 40.1084 14.2709C38.6236 14.2709 37.3075 14.6534 36.1601 15.4183C35.0352 16.1832 34.1578 17.2068 33.5279 18.4892C32.9205 19.749 32.6168 21.1439 32.6168 22.6737C32.6168 24.2935 33.0667 25.5759 33.9666 26.5207C34.8665 27.4431 36.1376 27.9043 37.7799 27.9043ZM53.3076 21.1214C53.7126 18.7816 54.5787 16.7006 55.9061 14.8783C57.2559 13.0336 58.932 11.605 60.9342 10.5926C62.9365 9.5577 65.1075 9.04026 67.4472 9.04026C70.2819 9.04026 72.5541 9.72643 74.2639 11.0988C75.9962 12.4711 76.9411 14.3721 77.0986 16.8019H70.7543C70.4619 16.0145 69.9444 15.4183 69.202 15.0133C68.4821 14.5859 67.5935 14.3721 66.5361 14.3721C64.6688 14.3721 63.0602 14.9908 61.7104 16.2282C60.383 17.443 59.5394 19.0741 59.1794 21.1214C59.0669 21.7963 59.0107 22.3812 59.0107 22.8762C59.0107 24.541 59.4944 25.8233 60.4618 26.7232C61.4292 27.6231 62.8015 28.0731 64.5788 28.0731C66.0186 28.0731 67.2897 27.7131 68.3921 26.9932C69.4945 26.2508 70.3831 25.2046 71.0581 23.8548H63.7689L64.4776 19.6365H77.0311L76.0862 25.0022C75.4113 26.442 74.4439 27.7806 73.1841 29.018C71.9467 30.2553 70.4731 31.2565 68.7633 32.0214C67.0535 32.7863 65.2087 33.1687 63.229 33.1687C61.1817 33.1687 59.3819 32.775 57.8296 31.9876C56.2998 31.1777 55.1186 30.0528 54.2862 28.613C53.4763 27.1732 53.0714 25.4971 53.0714 23.5848C53.0714 22.9324 53.1501 22.1113 53.3076 21.1214ZM87.8204 9.31023L83.6359 33H77.8653L82.0498 9.31023H87.8204ZM109.01 33H103.24L96.1868 18.3879L93.5883 33H87.8177L92.0023 9.31023H97.7728L104.826 23.9898L107.424 9.31023H113.195L109.01 33Z" fill="#E4EDFE"/>
</g>
<defs>
<filter id="filter0_d_203_116" x="0.799194" y="0.222778" width="121.146" height="41.7634" filterUnits="userSpaceOnUse" color-interpolation-filters="sRGB">
<feFlood flood-opacity="0" result="BackgroundImageFix"/>
<feColorMatrix in="SourceAlpha" type="matrix" values="0 0 0 0 0 0 0 0 0 0 0 0 0 0 0 0 0 0 127 0" result="hardAlpha"/>
<feOffset/>
<feGaussianBlur stdDeviation="4.375"/>
<feComposite in2="hardAlpha" operator="out"/>
<feColorMatrix type="matrix" values="0 0 0 0 1 0 0 0 0 0.949019 0 0 0 0 0 0 0 0 0.5 0"/>
<feBlend mode="normal" in2="BackgroundImageFix" result="effect1_dropShadow_203_116"/>
<feBlend mode="normal" in="SourceGraphic" in2="effect1_dropShadow_203_116" result="shape"/>
</filter>
</defs>
</svg>
